<?xml version="1.0" encoding="UTF-8" standalone="no"?>
<!-- Created with Inkscape (http://www.inkscape.org/) -->

<svg
   xmlns:dc="http://purl.org/dc/elements/1.1/"
   xmlns:cc="http://creativecommons.org/ns#"
   xmlns:rdf="http://www.w3.org/1999/02/22-rdf-syntax-ns#"
   xmlns:svg="http://www.w3.org/2000/svg"
   xmlns="http://www.w3.org/2000/svg"
   xmlns:sodipodi="http://sodipodi.sourceforge.net/DTD/sodipodi-0.dtd"
   xmlns:inkscape="http://www.inkscape.org/namespaces/inkscape"
   width="297mm"
   height="210mm"
   viewBox="0 0 297 210"
   version="1.1"
   id="svg8"
   inkscape:version="0.92.4 (5da689c313, 2019-01-14)"
   sodipodi:docname="mainBg.svg">
  <defs
     id="defs2" />
  <sodipodi:namedview
     id="base"
     pagecolor="#ffffff"
     bordercolor="#666666"
     borderopacity="1.0"
     inkscape:pageopacity="0.0"
     inkscape:pageshadow="2"
     inkscape:zoom="0.7"
     inkscape:cx="328.38824"
     inkscape:cy="358.469"
     inkscape:document-units="mm"
     inkscape:current-layer="layer1"
     showgrid="false"
     inkscape:window-width="1920"
     inkscape:window-height="1017"
     inkscape:window-x="-8"
     inkscape:window-y="-8"
     inkscape:window-maximized="1" />
  <metadata
     id="metadata5">
    <rdf:RDF>
      <cc:Work
         rdf:about="">
        <dc:format>image/svg+xml</dc:format>
        <dc:type
           rdf:resource="http://purl.org/dc/dcmitype/StillImage" />
        <dc:title />
      </cc:Work>
    </rdf:RDF>
  </metadata>
  <g
     inkscape:groupmode="layer"
     id="layer2"
     inkscape:label="tło"
     style="display:none">
    <rect
       style="fill:#121212;fill-opacity:1;stroke-width:0.26458332"
       id="rect835"
       width="304.27084"
       height="215.8244"
       x="-1.5119048"
       y="-0.91077304" />
  </g>
  <g
     inkscape:label="Layer 1"
     inkscape:groupmode="layer"
     id="layer1"
     transform="translate(0,-87)">
    <path
       style="opacity:1;fill:#cc0001;fill-opacity:0.8492462;stroke:none;stroke-width:1.77139235;stroke-linecap:round;stroke-linejoin:round;stroke-miterlimit:14.39999962;stroke-dasharray:none;stroke-opacity:1;paint-order:fill markers stroke"
       d="m 19.635258,63.389485 a 5.6057894,5.6057894 0 0 0 -5.605822,5.605653 5.6057894,5.6057894 0 0 0 4.455703,5.480073 v 9.411997 H 9.3422858 V 71.026926 c 0,-0.01607 -0.00148,-0.03164 -0.00222,-0.04734 l 4.906e-4,-0.09393 c 7.147e-4,-0.275729 -0.2205517,-0.499541 -0.4962739,-0.50179 l -9.44163164,-0.07749 a 5.6057894,5.6057894 0 0 0 -5.53926036,-4.791282 5.6057894,5.6057894 0 0 0 -5.6058275,5.605642 5.6057894,5.6057894 0 0 0 5.6058275,5.605826 5.6057894,5.6057894 0 0 0 5.40482586,-4.120982 L 7.04213,72.669351 V 83.887234 H 5.2883242 c -1.4592928,0 -2.6340895,1.174802 -2.6340895,2.634087 v 4.923254 l -14.8611017,-0.07972 v -5.255371 a 5.6057894,5.6057894 0 0 0 4.5254163,-5.499093 5.6057894,5.6057894 0 0 0 -5.6058253,-5.605666 5.6057894,5.6057894 0 0 0 -5.605827,5.605666 5.6057894,5.6057894 0 0 0 4.385996,5.464315 v 7.225757 c 0,0.195324 0.157206,0.35252 0.352527,0.35252 h 0.335074 c 0.02471,0.0025 0.0497,0.0049 0.07508,0.0049 l 16.3987059,0.08775 V 103.395 c 0,0.10258 0.0063,0.20347 0.017649,0.3029 l -10.6927145,-0.0618 a 5.6057894,5.6057894 0 0 0 -5.5445714,-4.825689 5.6057894,5.6057894 0 0 0 -5.605828,5.605639 5.6057894,5.6057894 0 0 0 5.605828,5.60585 5.6057894,5.6057894 0 0 0 5.3949697,-4.08606 l 13.1579813,0.0758 c 0.098762,0.0111 0.1989766,0.0175 0.3008076,0.0175 h 1.6662843 v 8.78357 l -8.1885418,-0.0676 a 5.6057894,5.6057894 0 0 0 -5.5226237,-4.68145 5.6057894,5.6057894 0 0 0 -5.6058264,5.60565 5.6057894,5.6057894 0 0 0 5.6058264,5.60583 5.6057894,5.6057894 0 0 0 5.4293897,-4.23048 l 8.672358,0.0716 c 0.040068,0.01 0.081694,0.0157 0.124887,0.0157 h 1.2693001 c 0.036855,0 0.072635,-0.005 0.1072529,-0.0111 0.2324244,-0.0387 0.4088418,-0.2385 0.4096118,-0.48279 l 0.0042,-1.31202 c 7.04e-5,-0.0239 -0.00222,-0.0473 -0.00482,-0.0702 V 106.0292 H 17.40325 v 10.23953 a 5.6057894,5.6057894 0 0 0 -4.523168,5.49859 5.6057894,5.6057894 0 0 0 5.605822,5.60581 5.6057894,5.6057894 0 0 0 5.605827,-5.60581 5.6057894,5.6057894 0 0 0 -4.388067,-5.46469 V 106.0292 h 2.458172 c 1.459288,0 2.634089,-1.17479 2.634089,-2.63409 v -1.40544 l 9.101682,0.0722 v 9.7495 a 5.6057894,5.6057894 0 0 0 -4.47663,5.48993 5.6057894,5.6057894 0 0 0 5.605827,5.60581 5.6057894,5.6057894 0 0 0 5.605827,-5.60581 5.6057894,5.6057894 0 0 0 -4.434597,-5.47507 V 100.3615 c 0,-0.0125 -0.0012,-0.0247 -0.0025,-0.037 l 1.73e-4,-0.0293 c 6.55e-4,-0.28565 -0.228274,-0.517348 -0.513907,-0.519622 l -10.886472,-0.08627 v -8.330383 l 12.625223,0.08083 c 0.03275,0.0074 0.06662,0.01261 0.101716,0.01261 h 1.408897 c 0.246911,0 0.445758,-0.198834 0.445758,-0.445758 v -0.144961 c 0.0012,-0.01545 0.0025,-0.0309 0.0025,-0.04659 l 0.0037,-1.025565 c 1.36e-4,-0.03065 -0.0025,-0.06068 -0.0074,-0.0901 v -7.897614 a 5.6057894,5.6057894 0 0 0 4.817188,-5.543203 5.6057894,5.6057894 0 0 0 -5.605814,-5.605656 5.6057894,5.6057894 0 0 0 -5.605827,5.605656 5.6057894,5.6057894 0 0 0 4.094015,5.397389 v 7.481406 L 24.794108,89.058698 V 86.52252 c 0,-1.459285 -1.174811,-2.634087 -2.634096,-2.634087 h -1.375391 v -9.407795 a 5.6057894,5.6057894 0 0 0 4.455938,-5.484734 5.6057894,5.6057894 0 0 0 -5.60583,-5.605653 z m 0,2.578557 a 3.0271624,3.0271624 0 0 1 3.027268,3.027096 3.0271624,3.0271624 0 0 1 -3.027268,3.027258 3.0271624,3.0271624 0 0 1 -3.027257,-3.027258 3.0271624,3.0271624 0 0 1 3.027257,-3.027096 z m -25.7721246,2.125543 a 3.0271624,3.0271624 0 0 1 3.0272585,3.027086 3.0271624,3.0271624 0 0 1 -3.0272585,3.027269 3.0271624,3.0271624 0 0 1 -3.0272674,-3.027269 3.0271624,3.0271624 0 0 1 3.0272674,-3.027086 z m 44.7248316,5.136711 a 3.0271624,3.0271624 0 0 1 3.02727,3.027096 3.0271624,3.0271624 0 0 1 -3.02727,3.027258 3.0271624,3.0271624 0 0 1 -3.027257,-3.027258 3.0271624,3.0271624 0 0 1 3.027257,-3.027096 z m -51.875513,4.352964 a 3.0271624,3.0271624 0 0 1 3.027265,3.027085 3.0271624,3.0271624 0 0 1 -3.027265,3.027257 3.0271624,3.0271624 0 0 1 -3.027268,-3.027257 3.0271624,3.0271624 0 0 1 3.027268,-3.027085 z M 7.5883069,86.811044 H 19.860649 c 1.183882,0 2.136952,0.953065 2.136952,2.136951 v 12.019625 c 0,1.18387 -0.95307,2.13695 -2.136952,2.13695 H 7.5883069 c -1.1838759,0 -2.136954,-0.95308 -2.136954,-2.13695 V 88.947995 c 0,-1.183886 0.9530781,-2.136951 2.136954,-2.136951 z M -13.565694,101.38813 a 3.0271624,3.0271624 0 0 1 3.027259,3.02709 3.0271624,3.0271624 0 0 1 -3.027259,3.02726 3.0271624,3.0271624 0 0 1 -3.027267,-3.02726 3.0271624,3.0271624 0 0 1 3.027267,-3.02709 z m 6.8088774,11.25316 a 3.0271624,3.0271624 0 0 1 3.0272659,3.02708 3.0271624,3.0271624 0 0 1 -3.0272659,3.02727 3.0271624,3.0271624 0 0 1 -3.0272662,-3.02727 3.0271624,3.0271624 0 0 1 3.0272662,-3.02708 z m 41.7826806,1.63186 a 3.0271624,3.0271624 0 0 1 3.02727,3.02709 3.0271624,3.0271624 0 0 1 -3.02727,3.02726 3.0271624,3.0271624 0 0 1 -3.027269,-3.02726 3.0271624,3.0271624 0 0 1 3.027269,-3.02709 z m -16.540898,4.46608 a 3.0271624,3.0271624 0 0 1 3.027265,3.02709 3.0271624,3.0271624 0 0 1 -3.027265,3.02727 3.0271624,3.0271624 0 0 1 -3.027258,-3.02727 3.0271624,3.0271624 0 0 1 3.027258,-3.02709 z"
       id="rect815-7"
       inkscape:connector-curvature="0" />
    <path
       style="opacity:1;fill:#cc0001;fill-opacity:0.8492462;stroke:none;stroke-width:1.78904676;stroke-linecap:round;stroke-linejoin:round;stroke-miterlimit:14.39999962;stroke-dasharray:none;stroke-opacity:1;paint-order:fill markers stroke"
       d="m 227.49291,254.48397 a 5.661659,5.661659 0 0 0 -5.6617,5.66152 5.661659,5.661659 0 0 0 4.50011,5.53469 v 9.5058 h -9.23397 v -12.98845 c 0,-0.0162 -0.001,-0.032 -0.002,-0.0478 l 5e-4,-0.0949 c 7.3e-4,-0.27849 -0.22274,-0.50453 -0.50121,-0.5068 l -9.53574,-0.0783 a 5.661659,5.661659 0 0 0 -5.59446,-4.83903 5.661659,5.661659 0 0 0 -5.6617,5.66151 5.661659,5.661659 0 0 0 5.6617,5.6617 5.661659,5.661659 0 0 0 5.45869,-4.16206 l 7.85139,0.0644 v 11.32969 h -1.77128 c -1.47384,0 -2.66035,1.18651 -2.66035,2.66034 v 4.97232 l -15.00921,-0.0805 v -5.30775 a 5.661659,5.661659 0 0 0 4.57052,-5.5539 5.661659,5.661659 0 0 0 -5.66169,-5.66154 5.661659,5.661659 0 0 0 -5.6617,5.66154 5.661659,5.661659 0 0 0 4.4297,5.51877 v 7.29778 c 0,0.19727 0.15878,0.35603 0.35605,0.35603 h 0.33841 c 0.025,0.002 0.0502,0.005 0.0758,0.005 l 16.56213,0.0886 v 9.74548 c 0,0.10361 0.006,0.2055 0.0179,0.30592 l -10.79927,-0.0624 a 5.661659,5.661659 0 0 0 -5.59983,-4.87379 5.661659,5.661659 0 0 0 -5.6617,5.66151 5.661659,5.661659 0 0 0 5.6617,5.66171 5.661659,5.661659 0 0 0 5.44873,-4.12678 l 13.28912,0.0765 c 0.0997,0.0112 0.20096,0.0177 0.30381,0.0177 h 1.68289 v 8.87111 l -8.27016,-0.0683 a 5.661659,5.661659 0 0 0 -5.57766,-4.72811 5.661659,5.661659 0 0 0 -5.66169,5.66153 5.661659,5.661659 0 0 0 5.66169,5.66169 5.661659,5.661659 0 0 0 5.48351,-4.27264 l 8.75878,0.0723 c 0.0404,0.01 0.0825,0.0159 0.12613,0.0159 h 1.28195 c 0.0372,0 0.0734,-0.005 0.10835,-0.0112 0.23474,-0.0391 0.41292,-0.24088 0.41369,-0.4876 l 0.004,-1.3251 c 7e-5,-0.0241 -0.002,-0.0478 -0.005,-0.0709 v -9.31854 h 8.22876 v 10.34158 a 5.661659,5.661659 0 0 0 -4.56826,5.55339 5.661659,5.661659 0 0 0 5.6617,5.66168 5.661659,5.661659 0 0 0 5.6617,-5.66168 5.661659,5.661659 0 0 0 -4.4318,-5.51915 v -10.37582 h 2.48267 c 1.47384,0 2.66035,-1.1865 2.66035,-2.66034 v -1.41945 l 9.19238,0.0729 v 9.84666 a 5.661659,5.661659 0 0 0 -4.52124,5.54465 5.661659,5.661659 0 0 0 5.66169,5.66168 5.661659,5.661659 0 0 0 5.66171,-5.66168 5.661659,5.661659 0 0 0 -4.47881,-5.52964 v -11.57897 c 0,-0.0126 -10e-4,-0.025 -0.002,-0.0373 l 1.8e-4,-0.0296 c 6.6e-4,-0.2885 -0.23055,-0.5225 -0.51904,-0.5248 l -10.99496,-0.0871 v -8.4134 l 12.75105,0.0816 c 0.0331,0.007 0.0673,0.0127 0.10273,0.0127 h 1.42293 c 0.24939,0 0.45021,-0.20081 0.45021,-0.4502 v -0.1464 c 0.001,-0.0156 0.002,-0.0312 0.002,-0.0471 l 0.004,-1.03579 c 1.3e-4,-0.031 -0.002,-0.0613 -0.007,-0.091 v -7.97633 a 5.661659,5.661659 0 0 0 4.86519,-5.59845 5.661659,5.661659 0 0 0 -5.66169,-5.66152 5.661659,5.661659 0 0 0 -5.6617,5.66152 5.661659,5.661659 0 0 0 4.13482,5.45118 v 7.55597 l -12.40357,-0.0795 v -2.56145 c 0,-1.47383 -1.18651,-2.66034 -2.66034,-2.66034 h -1.3891 v -9.50156 a 5.661659,5.661659 0 0 0 4.50034,-5.53939 5.661659,5.661659 0 0 0 -5.6617,-5.66153 z m 0,2.60426 a 3.0573324,3.0573324 0 0 1 3.05744,3.05726 3.0573324,3.0573324 0 0 1 -3.05744,3.05743 3.0573324,3.0573324 0 0 1 -3.05743,-3.05743 3.0573324,3.0573324 0 0 1 3.05743,-3.05726 z m -26.02899,2.14672 a 3.0573324,3.0573324 0 0 1 3.05743,3.05726 3.0573324,3.0573324 0 0 1 -3.05743,3.05744 3.0573324,3.0573324 0 0 1 -3.05744,-3.05744 3.0573324,3.0573324 0 0 1 3.05744,-3.05726 z m 45.17059,5.18791 a 3.0573324,3.0573324 0 0 1 3.05744,3.05726 3.0573324,3.0573324 0 0 1 -3.05744,3.05743 3.0573324,3.0573324 0 0 1 -3.05743,-3.05743 3.0573324,3.0573324 0 0 1 3.05743,-3.05726 z m -52.39253,4.39635 a 3.0573324,3.0573324 0 0 1 3.05743,3.05725 3.0573324,3.0573324 0 0 1 -3.05743,3.05743 3.0573324,3.0573324 0 0 1 -3.05744,-3.05743 3.0573324,3.0573324 0 0 1 3.05744,-3.05725 z m 21.08391,9.31975 h 12.39466 c 1.19567,0 2.15825,0.96256 2.15825,2.15825 v 12.13941 c 0,1.19567 -0.96258,2.15825 -2.15825,2.15825 h -12.39466 c -1.19567,0 -2.15825,-0.96258 -2.15825,-2.15825 v -12.13941 c 0,-1.19569 0.96258,-2.15825 2.15825,-2.15825 z m -21.36484,14.72236 a 3.0573324,3.0573324 0 0 1 3.05743,3.05727 3.0573324,3.0573324 0 0 1 -3.05743,3.05743 3.0573324,3.0573324 0 0 1 -3.05742,-3.05743 3.0573324,3.0573324 0 0 1 3.05742,-3.05727 z m 6.87675,11.36532 a 3.0573324,3.0573324 0 0 1 3.05744,3.05726 3.0573324,3.0573324 0 0 1 -3.05744,3.05744 3.0573324,3.0573324 0 0 1 -3.05744,-3.05744 3.0573324,3.0573324 0 0 1 3.05744,-3.05726 z m 42.1991,1.64812 a 3.0573324,3.0573324 0 0 1 3.05744,3.05727 3.0573324,3.0573324 0 0 1 -3.05744,3.05743 3.0573324,3.0573324 0 0 1 -3.05743,-3.05743 3.0573324,3.0573324 0 0 1 3.05743,-3.05727 z m -16.70575,4.5106 a 3.0573324,3.0573324 0 0 1 3.05744,3.05726 3.0573324,3.0573324 0 0 1 -3.05744,3.05744 3.0573324,3.0573324 0 0 1 -3.05743,-3.05744 3.0573324,3.0573324 0 0 1 3.05743,-3.05726 z"
       id="rect815-1"
       inkscape:connector-curvature="0" />
    <path
       style="opacity:1;fill:#cc0001;fill-opacity:0.8492462;stroke:none;stroke-width:1.60232806;stroke-linecap:round;stroke-linejoin:round;stroke-miterlimit:14.39999962;stroke-dasharray:none;stroke-opacity:1;paint-order:fill markers stroke"
       d="m 9.3380888,146.43825 a 5.0707645,5.0707645 0 0 0 -5.0707868,5.07064 5.0707645,5.0707645 0 0 0 4.0304366,4.95705 v 8.5137 H 0.02749441 v -11.63288 c 0,-0.0145 -0.001118,-0.0286 -0.002236,-0.0428 l 4.4718e-4,-0.085 c 6.4842e-4,-0.24942 -0.19949997,-0.45187 -0.44890567,-0.4539 l -8.54051022,-0.0701 a 5.0707645,5.0707645 0 0 0 -5.0105847,-4.334 5.0707645,5.0707645 0 0 0 -5.0708,5.07064 5.0707645,5.0707645 0 0 0 5.0708,5.07079 5.0707645,5.0707645 0 0 0 4.8889842,-3.72767 l 7.0319573,0.0577 v 10.14723 h -1.5864189 c -1.3200201,0 -2.3826859,1.06268 -2.3826859,2.38269 v 4.45337 l -13.4427437,-0.0721 v -4.75379 a 5.0707645,5.0707645 0 0 0 4.093513,-4.97425 5.0707645,5.0707645 0 0 0 -5.0708,-5.07065 5.0707645,5.0707645 0 0 0 -5.070798,5.07065 5.0707645,5.0707645 0 0 0 3.967383,4.94279 v 6.53612 c 0,0.17668 0.142204,0.31888 0.318887,0.31888 h 0.30309 c 0.02236,0.002 0.04494,0.004 0.06797,0.004 l 14.8335974,0.0794 v 8.72838 c 0,0.0928 0.00559,0.18405 0.015987,0.27399 l -9.6721874,-0.0559 a 5.0707645,5.0707645 0 0 0 -5.015394,-4.36512 5.0707645,5.0707645 0 0 0 -5.070798,5.07063 5.0707645,5.0707645 0 0 0 5.070798,5.07081 5.0707645,5.0707645 0 0 0 4.880065,-3.69608 l 11.902171,0.0685 c 0.089325,0.0101 0.1799804,0.0159 0.2720891,0.0159 h 1.5072561 v 7.94525 l -7.4070105,-0.0611 a 5.0707645,5.0707645 0 0 0 -4.9955377,-4.23464 5.0707645,5.0707645 0 0 0 -5.070799,5.07064 5.0707645,5.0707645 0 0 0 5.070799,5.0708 5.0707645,5.0707645 0 0 0 4.9111988,-3.82672 l 7.8446583,0.0647 c 0.036222,0.009 0.073897,0.0142 0.1129587,0.0142 h 1.1481562 c 0.0333152,0 0.065736,-0.004 0.0970389,-0.0101 0.21024357,-0.035 0.36982119,-0.21573 0.3705255,-0.43671 l 0.003354,-1.1868 c 5.59e-5,-0.0216 -0.002236,-0.0428 -0.004472,-0.0635 V 185.0079 H 7.3184269 v 9.26226 a 5.0707645,5.0707645 0 0 0 -4.091465,4.97379 5.0707645,5.0707645 0 0 0 5.0707879,5.07079 5.0707645,5.0707645 0 0 0 5.0707972,-5.07079 5.0707645,5.0707645 0 0 0 -3.9692611,-4.94313 v -9.29292 h 2.2235671 c 1.320009,0 2.382685,-1.06266 2.382685,-2.38268 v -1.2713 l 8.233004,0.0653 v 8.81898 a 5.0707645,5.0707645 0 0 0 -4.049374,4.96597 5.0707645,5.0707645 0 0 0 5.070799,5.07078 5.0707645,5.0707645 0 0 0 5.070798,-5.07078 5.0707645,5.0707645 0 0 0 -4.011352,-4.95252 v -10.3705 c 0,-0.0113 -0.0011,-0.0224 -0.0022,-0.0334 l 1.56e-4,-0.0265 c 5.93e-4,-0.25839 -0.206487,-0.46797 -0.46487,-0.47003 l -9.847475,-0.0776 v -7.53532 l 11.420252,0.0731 c 0.02963,0.007 0.06026,0.0114 0.09201,0.0114 h 1.274419 c 0.223357,0 0.403226,-0.17986 0.403226,-0.40322 v -0.13112 c 0.0011,-0.014 0.0022,-0.028 0.0022,-0.0421 l 0.0034,-0.92768 c 1.11e-4,-0.0277 -0.0022,-0.0549 -0.0067,-0.0815 v -7.14386 a 5.0707645,5.0707645 0 0 0 4.357428,-5.01415 5.0707645,5.0707645 0 0 0 -5.070787,-5.07064 5.0707645,5.0707645 0 0 0 -5.070799,5.07064 5.0707645,5.0707645 0 0 0 3.703277,4.88226 v 6.76737 l -11.109046,-0.0712 v -2.29412 c 0,-1.32001 -1.062677,-2.38268 -2.382686,-2.38268 h -1.244122 v -8.5099 a 5.0707645,5.0707645 0 0 0 4.030659,-4.96126 5.0707645,5.0707645 0 0 0 -5.0708089,-5.07065 z m 0,2.33246 a 2.7382455,2.7382455 0 0 1 2.7383422,2.73818 2.7382455,2.7382455 0 0 1 -2.7383422,2.73833 2.7382455,2.7382455 0 0 1 -2.7383314,-2.73833 2.7382455,2.7382455 0 0 1 2.7383314,-2.73818 z m -23.3123948,1.92267 a 2.7382455,2.7382455 0 0 1 2.738331,2.73818 2.7382455,2.7382455 0 0 1 -2.738331,2.73834 2.7382455,2.7382455 0 0 1 -2.738344,-2.73834 2.7382455,2.7382455 0 0 1 2.738344,-2.73818 z m 40.456233,4.64646 a 2.7382455,2.7382455 0 0 1 2.738343,2.73819 2.7382455,2.7382455 0 0 1 -2.738343,2.73833 2.7382455,2.7382455 0 0 1 -2.738331,-2.73833 2.7382455,2.7382455 0 0 1 2.738331,-2.73819 z m -46.924438,3.93751 a 2.7382455,2.7382455 0 0 1 2.738331,2.73818 2.7382455,2.7382455 0 0 1 -2.738331,2.73833 2.7382455,2.7382455 0 0 1 -2.738343,-2.73833 2.7382455,2.7382455 0 0 1 2.738343,-2.73818 z m 18.88343,8.34707 H 9.5419711 c 1.0708939,0 1.9329979,0.8621 1.9329979,1.933 v 10.87245 c 0,1.07088 -0.862104,1.933 -1.9329979,1.933 H -1.559081 c -1.0708827,0 -1.9329976,-0.86212 -1.9329976,-1.933 v -10.87245 c 0,-1.0709 0.8621149,-1.933 1.9329976,-1.933 z m -19.135027,13.18582 a 2.7382455,2.7382455 0 0 1 2.738331,2.73819 2.7382455,2.7382455 0 0 1 -2.738331,2.73833 2.7382455,2.7382455 0 0 1 -2.738343,-2.73833 2.7382455,2.7382455 0 0 1 2.738343,-2.73819 z m 6.159022,10.17915 a 2.7382455,2.7382455 0 0 1 2.738342,2.73818 2.7382455,2.7382455 0 0 1 -2.738342,2.73834 2.7382455,2.7382455 0 0 1 -2.738344,-2.73834 2.7382455,2.7382455 0 0 1 2.738344,-2.73818 z m 37.794885,1.47611 a 2.7382455,2.7382455 0 0 1 2.738331,2.73819 2.7382455,2.7382455 0 0 1 -2.738331,2.73833 2.7382455,2.7382455 0 0 1 -2.738343,-2.73833 2.7382455,2.7382455 0 0 1 2.738343,-2.73819 z m -14.9622169,4.03984 a 2.7382455,2.7382455 0 0 1 2.7383419,2.73818 2.7382455,2.7382455 0 0 1 -2.7383419,2.73834 2.7382455,2.7382455 0 0 1 -2.738332,-2.73834 2.7382455,2.7382455 0 0 1 2.738332,-2.73818 z"
       id="rect815-81"
       inkscape:connector-curvature="0" />
    <path
       style="opacity:1;fill:#cc0001;fill-opacity:0.8492462;stroke:none;stroke-width:2.0611186;stroke-linecap:round;stroke-linejoin:round;stroke-miterlimit:14.39999962;stroke-dasharray:none;stroke-opacity:1;paint-order:fill markers stroke"
       d="m 30.667788,255.08419 a 6.5226639,6.5226639 0 0 0 -6.522708,6.52251 6.5226639,6.5226639 0 0 0 5.184475,6.37638 v 10.95141 H 18.691299 V 263.9708 c 0,-0.0187 -0.0014,-0.0368 -0.0029,-0.0551 l 5.75e-4,-0.10929 c 8.34e-4,-0.32083 -0.256622,-0.58125 -0.57744,-0.58387 L 7.1256642,263.13244 A 6.5226639,6.5226639 0 0 0 0.68041116,257.55751 6.5226639,6.5226639 0 0 0 -5.8422889,264.08 6.5226639,6.5226639 0 0 0 0.68041116,270.60271 6.5226639,6.5226639 0 0 0 6.9692462,265.8077 l 9.0454008,0.0742 v 13.05266 h -2.040654 c -1.697964,0 -3.064915,1.36695 -3.064915,3.06491 v 5.7285 l -17.2917593,-0.0929 v -6.11493 a 6.5226639,6.5226639 0 0 0 5.2655865,-6.39851 6.5226639,6.5226639 0 0 0 -6.5227065,-6.52253 6.5226639,6.5226639 0 0 0 -6.5227047,6.52253 6.5226639,6.5226639 0 0 0 5.1033612,6.35804 v 8.4076 c 0,0.22727 0.1829187,0.41017 0.4101859,0.41017 H -8.25908 c 0.028747,0.003 0.057825,0.006 0.087362,0.006 l 19.080854,0.1021 v 11.22754 c 0,0.11936 0.0072,0.23675 0.02056,0.35245 l -12.4416008,-0.0719 a 6.5226639,6.5226639 0 0 0 -6.4514304,-5.61497 6.5226639,6.5226639 0 0 0 -6.5227078,6.52249 6.5226639,6.5226639 0 0 0 6.5227078,6.52272 6.5226639,6.5226639 0 0 0 6.2773674,-4.75436 l 15.3100758,0.0881 c 0.114901,0.0129 0.231514,0.0204 0.35001,0.0204 h 1.938811 v 10.2202 l -9.5278418,-0.0787 a 6.5226639,6.5226639 0 0 0 -6.42589704,-5.44714 6.5226639,6.5226639 0 0 0 -6.52270496,6.52251 6.5226639,6.5226639 0 0 0 6.52270496,6.5227 6.5226639,6.5226639 0 0 0 6.31740904,-4.92241 l 10.0908008,0.0833 c 0.04659,0.0115 0.09506,0.0183 0.145316,0.0183 h 1.476905 c 0.04285,0 0.08456,-0.006 0.124824,-0.0129 0.270442,-0.045 0.475711,-0.2775 0.476602,-0.56175 l 0.0043,-1.52662 c 8.6e-5,-0.0278 -0.0029,-0.0551 -0.0058,-0.0817 v -10.73567 h 9.480142 v 11.91429 a 6.5226639,6.5226639 0 0 0 -5.262965,6.39793 6.5226639,6.5226639 0 0 0 6.522708,6.52269 6.5226639,6.5226639 0 0 0 6.522707,-6.52269 6.5226639,6.5226639 0 0 0 -5.105784,-6.35848 v -11.95374 h 2.860235 c 1.697964,0 3.064914,-1.36694 3.064914,-3.06492 v -1.6353 l 10.59034,0.084 v 11.3441 a 6.5226639,6.5226639 0 0 0 -5.208821,6.38786 6.5226639,6.5226639 0 0 0 6.522707,6.52269 6.5226639,6.5226639 0 0 0 6.522708,-6.52269 6.5226639,6.5226639 0 0 0 -5.159913,-6.37056 V 298.1035 c 0,-0.0145 -0.0014,-0.0288 -0.0029,-0.043 l 2.01e-4,-0.0341 c 7.62e-4,-0.33236 -0.26561,-0.60196 -0.597961,-0.6046 l -12.667046,-0.10038 v -9.69289 l 14.690185,0.094 c 0.03811,0.009 0.07751,0.0147 0.118352,0.0147 h 1.639335 c 0.28731,0 0.518666,-0.23136 0.518666,-0.51867 v -0.16867 c 0.0014,-0.018 0.0029,-0.036 0.0029,-0.0542 l 0.0043,-1.19331 c 1.58e-4,-0.0357 -0.0029,-0.0706 -0.0086,-0.10483 v -9.18934 a 6.5226639,6.5226639 0 0 0 5.605094,-6.44984 6.5226639,6.5226639 0 0 0 -6.522708,-6.52251 6.5226639,6.5226639 0 0 0 -6.522708,6.52251 6.5226639,6.5226639 0 0 0 4.763627,6.28018 v 8.70505 L 36.669404,284.952 v -2.95099 c 0,-1.69797 -1.366965,-3.06492 -3.064929,-3.06492 h -1.600348 v -10.94652 a 6.5226639,6.5226639 0 0 0 5.184749,-6.3818 6.5226639,6.5226639 0 0 0 -6.522708,-6.52251 z m 0,3.0003 a 3.5222805,3.5222805 0 0 1 3.522405,3.52221 3.5222805,3.5222805 0 0 1 -3.522405,3.52239 3.5222805,3.5222805 0 0 1 -3.522391,-3.52239 3.5222805,3.5222805 0 0 1 3.522391,-3.52221 z m -29.98737684,2.4732 a 3.5222805,3.5222805 0 0 1 3.52239104,3.52219 3.5222805,3.5222805 0 0 1 -3.52239104,3.5224 3.5222805,3.5222805 0 0 1 -3.52240496,-3.5224 3.5222805,3.5222805 0 0 1 3.52240496,-3.52219 z m 52.03995384,5.97686 a 3.5222805,3.5222805 0 0 1 3.522406,3.5222 3.5222805,3.5222805 0 0 1 -3.522406,3.52239 3.5222805,3.5222805 0 0 1 -3.522391,-3.52239 3.5222805,3.5222805 0 0 1 3.522391,-3.5222 z m -60.3601936,5.06493 a 3.5222805,3.5222805 0 0 1 3.5224025,3.52219 3.5222805,3.5222805 0 0 1 -3.5224025,3.52239 3.5222805,3.5222805 0 0 1 -3.5224024,-3.52239 3.5222805,3.5222805 0 0 1 3.5224024,-3.52219 z m 24.2902716,10.73706 h 14.27959 c 1.37752,0 2.486468,1.10895 2.486468,2.48647 v 13.98554 c 0,1.3775 -1.108948,2.48646 -2.486468,2.48646 h -14.27959 c -1.377506,0 -2.486468,-1.10896 -2.486468,-2.48646 v -13.98554 c 0,-1.37752 1.108962,-2.48647 2.486468,-2.48647 z m -24.6139105,16.96129 a 3.5222805,3.5222805 0 0 1 3.522391,3.52221 3.5222805,3.5222805 0 0 1 -3.522391,3.52239 3.5222805,3.5222805 0 0 1 -3.5224015,-3.52239 3.5222805,3.5222805 0 0 1 3.5224015,-3.52221 z m 7.92253266,13.09372 a 3.5222805,3.5222805 0 0 1 3.52239004,3.52219 3.5222805,3.5222805 0 0 1 -3.52239004,3.52241 3.5222805,3.5222805 0 0 1 -3.52240566,-3.52241 3.5222805,3.5222805 0 0 1 3.52240566,-3.52219 z m 48.61658784,1.89876 a 3.5222805,3.5222805 0 0 1 3.522405,3.52221 3.5222805,3.5222805 0 0 1 -3.522405,3.52239 3.5222805,3.5222805 0 0 1 -3.522406,-3.52239 3.5222805,3.5222805 0 0 1 3.522406,-3.52221 z m -19.246299,5.19656 a 3.5222805,3.5222805 0 0 1 3.522391,3.52219 3.5222805,3.5222805 0 0 1 -3.522391,3.5224 3.5222805,3.5222805 0 0 1 -3.522391,-3.5224 3.5222805,3.5222805 0 0 1 3.522391,-3.52219 z"
       id="rect815-0"
       inkscape:connector-curvature="0" />
    <path
       style="opacity:1;fill:#cc0001;fill-opacity:0.8492462;stroke:none;stroke-width:1.929896;stroke-linecap:round;stroke-linejoin:round;stroke-miterlimit:14.39999962;stroke-dasharray:none;stroke-opacity:1;paint-order:fill markers stroke"
       d="m 165.04141,46.93811 a 6.1073936,6.1073936 0 0 0 -6.10743,6.10725 6.1073936,6.1073936 0 0 0 4.8544,5.97043 v 10.25418 h -9.96096 V 55.25895 c 0,-0.0175 -10e-4,-0.0345 -0.003,-0.0516 l 5.4e-4,-0.10233 c 7.8e-4,-0.30041 -0.24028,-0.54425 -0.54067,-0.5467 l -10.28647,-0.0844 a 6.1073936,6.1073936 0 0 0 -6.03491,-5.22001 6.1073936,6.1073936 0 0 0 -6.10744,6.10724 6.1073936,6.1073936 0 0 0 6.10744,6.10743 6.1073936,6.1073936 0 0 0 5.88845,-4.48973 l 8.46952,0.0695 v 12.22166 h -1.91074 c -1.58987,0 -2.86978,1.27992 -2.86978,2.86978 v 5.36379 l -16.19088,-0.0868 v -5.72562 a 6.1073936,6.1073936 0 0 0 4.93036,-5.99115 6.1073936,6.1073936 0 0 0 -6.10744,-6.10726 6.1073936,6.1073936 0 0 0 -6.10743,6.10726 6.1073936,6.1073936 0 0 0 4.77846,5.95326 v 7.87232 c 0,0.2128 0.17126,0.38406 0.38406,0.38406 h 0.36505 c 0.0269,0.003 0.0541,0.005 0.0819,0.005 l 17.86607,0.0956 v 10.51273 c 0,0.11176 0.007,0.22168 0.0192,0.33 l -11.64949,-0.0673 a 6.1073936,6.1073936 0 0 0 -6.04071,-5.25749 6.1073936,6.1073936 0 0 0 -6.10743,6.10723 6.1073936,6.1073936 0 0 0 6.10743,6.10745 6.1073936,6.1073936 0 0 0 5.87771,-4.45168 l 14.33536,0.0825 c 0.10759,0.0121 0.21678,0.0191 0.32773,0.0191 h 1.81537 v 9.56952 l -8.92124,-0.0736 a 6.1073936,6.1073936 0 0 0 -6.01679,-5.10034 6.1073936,6.1073936 0 0 0 -6.10743,6.10724 6.1073936,6.1073936 0 0 0 6.10743,6.10744 6.1073936,6.1073936 0 0 0 5.91521,-4.60903 l 9.44836,0.078 c 0.0436,0.0108 0.089,0.0171 0.13607,0.0171 h 1.38287 c 0.0401,0 0.0792,-0.005 0.11688,-0.0121 0.25322,-0.0421 0.44542,-0.25984 0.44626,-0.52599 l 0.004,-1.42942 c 8e-5,-0.026 -0.003,-0.0516 -0.005,-0.0765 V 93.39294 h 8.87658 v 11.15576 a 6.1073936,6.1073936 0 0 0 -4.92789,5.9906 6.1073936,6.1073936 0 0 0 6.10743,6.10742 6.1073936,6.1073936 0 0 0 6.10744,-6.10742 6.1073936,6.1073936 0 0 0 -4.78072,-5.95367 V 93.39294 h 2.67813 c 1.58987,0 2.86979,-1.27991 2.86979,-2.86979 v -1.53119 l 9.9161,0.0786 v 10.62187 a 6.1073936,6.1073936 0 0 0 -4.8772,5.98118 6.1073936,6.1073936 0 0 0 6.10743,6.10742 6.1073936,6.1073936 0 0 0 6.10744,-6.10742 6.1073936,6.1073936 0 0 0 -4.83141,-5.96498 V 87.21807 c 0,-0.0136 -0.001,-0.0269 -0.003,-0.0403 l 1.9e-4,-0.0319 c 7e-4,-0.3112 -0.2487,-0.56363 -0.55989,-0.56612 l -11.86043,-0.094 v -9.07578 l 13.75492,0.0881 c 0.0357,0.008 0.0726,0.0137 0.11082,0.0137 h 1.53497 c 0.26901,0 0.48564,-0.21663 0.48564,-0.48565 v -0.15793 c 0.001,-0.0168 0.003,-0.0337 0.003,-0.0508 l 0.004,-1.11733 c 1.5e-4,-0.0334 -0.003,-0.0661 -0.008,-0.0982 v -8.6043 a 6.1073936,6.1073936 0 0 0 5.24811,-6.0392 6.1073936,6.1073936 0 0 0 -6.10743,-6.10725 6.1073936,6.1073936 0 0 0 -6.10744,6.10725 6.1073936,6.1073936 0 0 0 4.46035,5.88034 v 8.15085 l -13.38008,-0.0858 v -2.76311 c 0,-1.58987 -1.27994,-2.86979 -2.8698,-2.86979 h -1.49846 V 59.0217 a 6.1073936,6.1073936 0 0 0 4.85465,-5.9755 6.1073936,6.1073936 0 0 0 -6.10743,-6.10725 z m 0,2.80929 a 3.2980319,3.2980319 0 0 1 3.29815,3.29796 3.2980319,3.2980319 0 0 1 -3.29815,3.29813 3.2980319,3.2980319 0 0 1 -3.29813,-3.29813 3.2980319,3.2980319 0 0 1 3.29813,-3.29796 z m -28.07822,2.31574 a 3.2980319,3.2980319 0 0 1 3.29815,3.29794 3.2980319,3.2980319 0 0 1 -3.29815,3.29815 3.2980319,3.2980319 0 0 1 -3.29813,-3.29815 3.2980319,3.2980319 0 0 1 3.29813,-3.29794 z M 185.69,57.65948 a 3.2980319,3.2980319 0 0 1 3.29815,3.29796 3.2980319,3.2980319 0 0 1 -3.29815,3.29813 3.2980319,3.2980319 0 0 1 -3.29814,-3.29813 3.2980319,3.2980319 0 0 1 3.29814,-3.29796 z m -56.51732,4.74246 a 3.2980319,3.2980319 0 0 1 3.29815,3.29795 3.2980319,3.2980319 0 0 1 -3.29815,3.29813 3.2980319,3.2980319 0 0 1 -3.29815,-3.29813 3.2980319,3.2980319 0 0 1 3.29815,-3.29795 z m 22.74381,10.05349 h 13.37047 c 1.28982,0 2.32817,1.03834 2.32817,2.32816 v 13.09513 c 0,1.28981 -1.03835,2.32817 -2.32817,2.32817 h -13.37047 c -1.2898,0 -2.32816,-1.03836 -2.32816,-2.32817 V 74.78359 c 0,-1.28982 1.03836,-2.32816 2.32816,-2.32816 z m -23.04684,15.88143 a 3.2980319,3.2980319 0 0 1 3.29813,3.29796 3.2980319,3.2980319 0 0 1 -3.29813,3.29813 3.2980319,3.2980319 0 0 1 -3.29815,-3.29813 3.2980319,3.2980319 0 0 1 3.29815,-3.29796 z m 7.41812,12.26009 a 3.2980319,3.2980319 0 0 1 3.29815,3.29795 3.2980319,3.2980319 0 0 1 -3.29815,3.29815 3.2980319,3.2980319 0 0 1 -3.29813,-3.29815 3.2980319,3.2980319 0 0 1 3.29813,-3.29795 z m 45.52139,1.77788 a 3.2980319,3.2980319 0 0 1 3.29815,3.29796 3.2980319,3.2980319 0 0 1 -3.29815,3.29813 3.2980319,3.2980319 0 0 1 -3.29815,-3.29813 3.2980319,3.2980319 0 0 1 3.29815,-3.29796 z m -18.02097,4.86571 a 3.2980319,3.2980319 0 0 1 3.29814,3.29795 3.2980319,3.2980319 0 0 1 -3.29814,3.29815 3.2980319,3.2980319 0 0 1 -3.29813,-3.29815 3.2980319,3.2980319 0 0 1 3.29813,-3.29795 z"
       id="rect815-3-4"
       inkscape:connector-curvature="0" />
    <path
       style="opacity:1;fill:#cc0001;fill-opacity:0.8492462;stroke:none;stroke-width:1.22192633;stroke-linecap:round;stroke-linejoin:round;stroke-miterlimit:14.39999962;stroke-dasharray:none;stroke-opacity:1;paint-order:fill markers stroke"
       d="m 127.58812,271.41401 a 3.8669363,3.8669363 0 0 0 -3.86696,3.86684 3.8669363,3.8669363 0 0 0 3.0736,3.78022 v 6.4925 h -6.30685 v -8.87117 c 0,-0.0111 -8.5e-4,-0.0218 -0.002,-0.0327 l 3.4e-4,-0.0648 c 5e-4,-0.19021 -0.15214,-0.3446 -0.34234,-0.34615 l -6.51293,-0.0534 a 3.8669363,3.8669363 0 0 0 -3.82105,-3.30508 3.8669363,3.8669363 0 0 0 -3.86696,3.86683 3.8669363,3.8669363 0 0 0 3.86696,3.86696 3.8669363,3.8669363 0 0 0 3.72832,-2.8427 l 5.36253,0.044 v 7.73823 h -1.2098 c -1.00664,0 -1.81702,0.81039 -1.81702,1.81702 v 3.39611 l -10.25136,-0.055 v -3.62522 a 3.8669363,3.8669363 0 0 0 3.12169,-3.79333 3.8669363,3.8669363 0 0 0 -3.86696,-3.86686 3.8669363,3.8669363 0 0 0 -3.86697,3.86686 3.8669363,3.8669363 0 0 0 3.02552,3.76934 v 4.98441 c 0,0.13474 0.10843,0.24317 0.24317,0.24317 h 0.23113 c 0.0171,0.002 0.0343,0.003 0.0518,0.003 l 11.31202,0.0605 v 6.65621 c 0,0.0708 0.004,0.14036 0.0122,0.20894 l -7.37596,-0.0426 a 3.8669363,3.8669363 0 0 0 -3.82471,-3.32882 3.8669363,3.8669363 0 0 0 -3.86697,3.86684 3.8669363,3.8669363 0 0 0 3.86697,3.86697 3.8669363,3.8669363 0 0 0 3.72151,-2.81861 l 9.07653,0.0523 c 0.0681,0.008 0.13725,0.0121 0.2075,0.0121 h 1.14942 v 6.059 l -5.64855,-0.0466 a 3.8669363,3.8669363 0 0 0 -3.80956,-3.22932 3.8669363,3.8669363 0 0 0 -3.86697,3.86684 3.8669363,3.8669363 0 0 0 3.86697,3.86697 3.8669363,3.8669363 0 0 0 3.74525,-2.91824 l 5.98229,0.0494 c 0.0276,0.007 0.0564,0.0108 0.0862,0.0108 h 0.87558 c 0.0254,0 0.0501,-0.003 0.074,-0.008 0.16033,-0.0267 0.28202,-0.16452 0.28255,-0.33303 l 0.003,-0.90505 c 5e-5,-0.0165 -0.002,-0.0327 -0.003,-0.0484 v -6.3646 h 5.62026 v 7.06334 a 3.8669363,3.8669363 0 0 0 -3.12012,3.79299 3.8669363,3.8669363 0 0 0 3.86696,3.86695 3.8669363,3.8669363 0 0 0 3.86696,-3.86695 3.8669363,3.8669363 0 0 0 -3.02695,-3.7696 v -7.08673 h 1.69568 c 1.00664,0 1.81703,-0.81038 1.81703,-1.81702 v -0.96949 l 6.27844,0.0498 v 6.72531 a 3.8669363,3.8669363 0 0 0 -3.08803,3.78702 3.8669363,3.8669363 0 0 0 3.86696,3.86695 3.8669363,3.8669363 0 0 0 3.86696,-3.86695 3.8669363,3.8669363 0 0 0 -3.05903,-3.77677 v -7.90848 c 0,-0.009 -8.5e-4,-0.0171 -0.002,-0.0255 l 1.1e-4,-0.0202 c 4.6e-4,-0.19704 -0.15746,-0.35687 -0.35449,-0.35844 l -7.50951,-0.0595 v -5.74639 l 8.70902,0.0558 c 0.0226,0.005 0.046,0.009 0.0702,0.009 h 0.97188 c 0.17034,0 0.30749,-0.13716 0.30749,-0.30749 v -0.1 c 8.6e-4,-0.0106 0.002,-0.0213 0.002,-0.0321 l 0.003,-0.70744 c 9e-5,-0.0212 -0.002,-0.0419 -0.005,-0.0622 v -5.44787 a 3.8669363,3.8669363 0 0 0 3.32287,-3.82376 3.8669363,3.8669363 0 0 0 -3.86697,-3.86684 3.8669363,3.8669363 0 0 0 -3.86696,3.86684 3.8669363,3.8669363 0 0 0 2.82411,3.72318 v 5.16076 l -8.4717,-0.0543 v -1.74948 c 0,-1.00663 -0.81039,-1.81703 -1.81703,-1.81703 h -0.94876 v -6.4896 a 3.8669363,3.8669363 0 0 0 3.07376,-3.78343 3.8669363,3.8669363 0 0 0 -3.86696,-3.86684 z m 0,1.77872 a 2.0881705,2.0881705 0 0 1 2.08825,2.08812 2.0881705,2.0881705 0 0 1 -2.08825,2.08824 2.0881705,2.0881705 0 0 1 -2.08823,-2.08824 2.0881705,2.0881705 0 0 1 2.08823,-2.08812 z m -17.77791,1.46622 a 2.0881705,2.0881705 0 0 1 2.08825,2.08812 2.0881705,2.0881705 0 0 1 -2.08825,2.08824 2.0881705,2.0881705 0 0 1 -2.08823,-2.08824 2.0881705,2.0881705 0 0 1 2.08823,-2.08812 z m 30.8517,3.54336 a 2.0881705,2.0881705 0 0 1 2.08825,2.08813 2.0881705,2.0881705 0 0 1 -2.08825,2.08823 2.0881705,2.0881705 0 0 1 -2.08824,-2.08823 2.0881705,2.0881705 0 0 1 2.08824,-2.08813 z m -35.78431,3.00273 a 2.0881705,2.0881705 0 0 1 2.08824,2.08811 2.0881705,2.0881705 0 0 1 -2.08824,2.08824 2.0881705,2.0881705 0 0 1 -2.08825,-2.08824 2.0881705,2.0881705 0 0 1 2.08825,-2.08811 z m 14.4004,6.36542 h 8.4656 c 0.81665,0 1.47409,0.65744 1.47409,1.4741 v 8.29127 c 0,0.81665 -0.65744,1.47409 -1.47409,1.47409 h -8.4656 c -0.81665,0 -1.4741,-0.65744 -1.4741,-1.47409 v -8.29127 c 0,-0.81666 0.65745,-1.4741 1.4741,-1.4741 z m -14.59227,10.05544 a 2.0881705,2.0881705 0 0 1 2.08824,2.08812 2.0881705,2.0881705 0 0 1 -2.08824,2.08824 2.0881705,2.0881705 0 0 1 -2.08824,-2.08824 2.0881705,2.0881705 0 0 1 2.08824,-2.08812 z m 4.69684,7.76256 a 2.0881705,2.0881705 0 0 1 2.08824,2.08812 2.0881705,2.0881705 0 0 1 -2.08824,2.08824 2.0881705,2.0881705 0 0 1 -2.08824,-2.08824 2.0881705,2.0881705 0 0 1 2.08824,-2.08812 z m 28.82216,1.12567 a 2.0881705,2.0881705 0 0 1 2.08825,2.08813 2.0881705,2.0881705 0 0 1 -2.08825,2.08823 2.0881705,2.0881705 0 0 1 -2.08824,-2.08823 2.0881705,2.0881705 0 0 1 2.08824,-2.08813 z m -11.41009,3.08076 a 2.0881705,2.0881705 0 0 1 2.08824,2.08812 2.0881705,2.0881705 0 0 1 -2.08824,2.08824 2.0881705,2.0881705 0 0 1 -2.08824,-2.08824 2.0881705,2.0881705 0 0 1 2.08824,-2.08812 z"
       id="rect815-3-6"
       inkscape:connector-curvature="0" />
    <path
       style="opacity:1;fill:#cc0001;fill-opacity:0.8492462;stroke:none;stroke-width:0.95775849;stroke-linecap:round;stroke-linejoin:round;stroke-miterlimit:14.39999962;stroke-dasharray:none;stroke-opacity:1;paint-order:fill markers stroke"
       d="m 74.722806,87.796479 a 3.0309448,3.0309448 0 0 0 -3.030965,3.030872 3.0309448,3.0309448 0 0 0 2.409116,2.962972 v 5.08889 H 69.157583 V 91.9259 c 0,-0.0087 -6.68e-4,-0.01711 -0.0013,-0.02559 l 2.6e-4,-0.05079 c 3.95e-4,-0.149084 -0.119247,-0.270095 -0.268324,-0.271311 l -5.104907,-0.0419 a 3.0309448,3.0309448 0 0 0 -2.994974,-2.590556 3.0309448,3.0309448 0 0 0 -3.030965,3.030865 3.0309448,3.0309448 0 0 0 3.030965,3.030966 3.0309448,3.0309448 0 0 0 2.92229,-2.228139 l 4.203207,0.03448 v 6.065299 h -0.948249 c -0.789015,0 -1.424201,0.635194 -1.424201,1.424206 v 2.66191 l -8.035122,-0.0431 v -2.84148 a 3.0309448,3.0309448 0 0 0 2.446812,-2.97326 3.0309448,3.0309448 0 0 0 -3.030965,-3.030878 3.0309448,3.0309448 0 0 0 -3.030965,3.030878 3.0309448,3.0309448 0 0 0 2.371428,2.95445 v 3.90684 c 0,0.1056 0.08499,0.1906 0.190601,0.1906 h 0.181166 c 0.01337,0.001 0.02686,0.003 0.04063,0.003 l 8.866476,0.0474 v 5.2172 c 0,0.0555 0.0033,0.11001 0.0096,0.16377 l -5.781351,-0.0334 a 3.0309448,3.0309448 0 0 0 -2.997847,-2.60916 3.0309448,3.0309448 0 0 0 -3.030965,3.03087 3.0309448,3.0309448 0 0 0 3.030965,3.03097 3.0309448,3.0309448 0 0 0 2.916957,-2.20925 l 7.114277,0.041 c 0.05339,0.006 0.10758,0.01 0.162643,0.01 h 0.900924 v 4.74911 l -4.427387,-0.0365 a 3.0309448,3.0309448 0 0 0 -2.98598,-2.53117 3.0309448,3.0309448 0 0 0 -3.030965,3.03087 3.0309448,3.0309448 0 0 0 3.030965,3.03096 3.0309448,3.0309448 0 0 0 2.935568,-2.28734 l 4.688982,0.0387 c 0.02165,0.005 0.04417,0.008 0.06753,0.008 h 0.686286 c 0.01991,0 0.03929,-0.003 0.058,-0.006 0.125669,-0.0209 0.221053,-0.12895 0.221468,-0.26103 l 0.002,-0.70939 c 4.1e-5,-0.0129 -0.0013,-0.0256 -0.0027,-0.038 v -4.98864 h 4.405223 v 5.53632 a 3.0309448,3.0309448 0 0 0 -2.445589,2.97298 3.0309448,3.0309448 0 0 0 3.030965,3.03096 3.0309448,3.0309448 0 0 0 3.030965,-3.03096 3.0309448,3.0309448 0 0 0 -2.372551,-2.95465 v -5.55465 h 1.329091 c 0.789008,0 1.424202,-0.63519 1.424202,-1.4242 v -0.7599 l 4.92111,0.039 v 5.27137 a 3.0309448,3.0309448 0 0 0 -2.420432,2.9683 3.0309448,3.0309448 0 0 0 3.030967,3.03096 3.0309448,3.0309448 0 0 0 3.030965,-3.03096 3.0309448,3.0309448 0 0 0 -2.397703,-2.96026 v -6.19881 c 0,-0.007 -6.68e-4,-0.0134 -0.0013,-0.02 l 8.7e-5,-0.0158 c 3.54e-4,-0.15444 -0.123424,-0.27971 -0.27786,-0.28095 l -5.886032,-0.0466 v -4.50408 l 6.826222,0.0437 c 0.01771,0.004 0.03602,0.007 0.055,0.007 h 0.761764 c 0.133514,0 0.24102,-0.10751 0.24102,-0.24101 v -0.0784 c 6.68e-4,-0.008 0.0013,-0.0167 0.0013,-0.0252 l 0.002,-0.55451 c 7.3e-5,-0.0166 -0.0013,-0.0328 -0.004,-0.0487 v -4.270068 a 3.0309448,3.0309448 0 0 0 2.604495,-2.997106 3.0309448,3.0309448 0 0 0 -3.030965,-3.030872 3.0309448,3.0309448 0 0 0 -3.030965,3.030872 3.0309448,3.0309448 0 0 0 2.213564,2.918267 v 4.045057 l -6.640264,-0.0426 v -1.37126 c 0,-0.789012 -0.635193,-1.424206 -1.424208,-1.424206 h -0.743641 v -5.086617 a 3.0309448,3.0309448 0 0 0 2.409236,-2.965492 3.0309448,3.0309448 0 0 0 -3.030965,-3.030871 z m 0,1.394177 a 1.6367297,1.6367297 0 0 1 1.636787,1.636695 1.6367297,1.6367297 0 0 1 -1.636787,1.636781 1.6367297,1.6367297 0 0 1 -1.636781,-1.636781 1.6367297,1.6367297 0 0 1 1.636781,-1.636695 z m -13.93451,1.149242 a 1.6367297,1.6367297 0 0 1 1.636787,1.636687 1.6367297,1.6367297 0 0 1 -1.636787,1.636789 1.6367297,1.6367297 0 0 1 -1.636781,-1.636789 1.6367297,1.6367297 0 0 1 1.636781,-1.636687 z m 24.181881,2.777322 a 1.6367297,1.6367297 0 0 1 1.636787,1.636695 1.6367297,1.6367297 0 0 1 -1.636787,1.636781 1.6367297,1.6367297 0 0 1 -1.636781,-1.636781 1.6367297,1.6367297 0 0 1 1.636781,-1.636695 z M 56.92206,95.470787 a 1.6367297,1.6367297 0 0 1 1.636788,1.636687 1.6367297,1.6367297 0 0 1 -1.636788,1.636781 1.6367297,1.6367297 0 0 1 -1.636787,-1.636781 1.6367297,1.6367297 0 0 1 1.636787,-1.636687 z m 11.28718,4.989293 h 6.635425 c 0.640105,0 1.15541,0.5153 1.15541,1.15541 v 6.49878 c 0,0.6401 -0.515305,1.15541 -1.15541,1.15541 H 68.20924 c -0.640098,0 -1.155409,-0.51531 -1.155409,-1.15541 v -6.49878 c 0,-0.64011 0.515311,-1.15541 1.155409,-1.15541 z m -11.437566,7.88155 a 1.6367297,1.6367297 0 0 1 1.636781,1.6367 1.6367297,1.6367297 0 0 1 -1.636781,1.63678 1.6367297,1.6367297 0 0 1 -1.636788,-1.63678 1.6367297,1.6367297 0 0 1 1.636788,-1.6367 z m 3.681427,6.08438 a 1.6367297,1.6367297 0 0 1 1.636788,1.63669 1.6367297,1.6367297 0 0 1 -1.636788,1.63678 1.6367297,1.6367297 0 0 1 -1.636781,-1.63678 1.6367297,1.6367297 0 0 1 1.636781,-1.63669 z m 22.591115,0.88231 a 1.6367297,1.6367297 0 0 1 1.636788,1.6367 1.6367297,1.6367297 0 0 1 -1.636788,1.63678 1.6367297,1.6367297 0 0 1 -1.636788,-1.63678 1.6367297,1.6367297 0 0 1 1.636788,-1.6367 z m -8.943352,2.41473 a 1.6367297,1.6367297 0 0 1 1.636781,1.63669 1.6367297,1.6367297 0 0 1 -1.636781,1.63679 1.6367297,1.6367297 0 0 1 -1.636781,-1.63679 1.6367297,1.6367297 0 0 1 1.636781,-1.63669 z"
       id="rect815-3-1"
       inkscape:connector-curvature="0" />
    <path
       style="opacity:1;fill:#cc0001;fill-opacity:0.8492462;stroke:none;stroke-width:1.71856165;stroke-linecap:round;stroke-linejoin:round;stroke-miterlimit:14.39999962;stroke-dasharray:none;stroke-opacity:1;paint-order:fill markers stroke"
       d="m 256.94359,71.165526 a 5.4386,5.4386 0 0 0 -5.43864,5.438471 5.4386,5.4386 0 0 0 4.32282,5.316632 v 9.13129 h -8.87019 V 78.575187 c 0,-0.01559 -0.001,-0.03069 -0.002,-0.04592 l 4.8e-4,-0.09113 c 6.9e-4,-0.26751 -0.21398,-0.484647 -0.48147,-0.486829 l -9.16005,-0.07518 a 5.4386,5.4386 0 0 0 -5.37405,-4.648388 5.4386,5.4386 0 0 0 -5.43863,5.438459 5.4386,5.4386 0 0 0 5.43863,5.438636 5.4386,5.4386 0 0 0 5.24363,-3.998077 l 7.54206,0.06187 v 10.883316 h -1.7015 c -1.41577,0 -2.55552,1.139764 -2.55552,2.555527 v 4.776421 l -14.41788,-0.07734 V 93.20792 a 5.4386,5.4386 0 0 0 4.39045,-5.335086 5.4386,5.4386 0 0 0 -5.43864,-5.43848 5.4386,5.4386 0 0 0 -5.43864,5.43848 5.4386,5.4386 0 0 0 4.25519,5.301345 v 7.010251 c 0,0.1895 0.15251,0.34201 0.34202,0.34201 h 0.32507 c 0.024,0.002 0.0482,0.005 0.0729,0.005 l 15.90963,0.0851 v 9.36153 c 0,0.0995 0.006,0.1974 0.0172,0.29387 l -10.37381,-0.06 a 5.4386,5.4386 0 0 0 -5.37921,-4.68176 5.4386,5.4386 0 0 0 -5.43864,5.43845 5.4386,5.4386 0 0 0 5.43864,5.43865 5.4386,5.4386 0 0 0 5.23407,-3.96419 l 12.76555,0.0735 c 0.0958,0.0108 0.19304,0.017 0.29184,0.017 h 1.61658 v 8.5216 l -7.94432,-0.0656 a 5.4386,5.4386 0 0 0 -5.35791,-4.54183 5.4386,5.4386 0 0 0 -5.43864,5.43847 5.4386,5.4386 0 0 0 5.43864,5.43864 5.4386,5.4386 0 0 0 5.26746,-4.10432 l 8.41371,0.0694 c 0.0389,0.01 0.0793,0.0152 0.12116,0.0152 h 1.23145 c 0.0357,0 0.0705,-0.005 0.10408,-0.0108 0.22549,-0.0375 0.39665,-0.23138 0.39739,-0.46838 l 0.004,-1.2729 c 7e-5,-0.0231 -0.002,-0.0459 -0.005,-0.0681 v -8.9514 h 7.90455 v 9.93414 a 5.4386,5.4386 0 0 0 -4.38827,5.33459 5.4386,5.4386 0 0 0 5.43865,5.43863 5.4386,5.4386 0 0 0 5.43864,-5.43863 5.4386,5.4386 0 0 0 -4.25721,-5.3017 v -9.96703 h 2.38487 c 1.41576,0 2.55553,-1.13976 2.55553,-2.55553 v -1.36352 l 8.83021,0.07 v 9.45872 a 5.4386,5.4386 0 0 0 -4.3431,5.3262 5.4386,5.4386 0 0 0 5.43863,5.43863 5.4386,5.4386 0 0 0 5.43864,-5.43863 5.4386,5.4386 0 0 0 -4.30235,-5.31177 v -11.12278 c 0,-0.0121 -0.001,-0.024 -0.002,-0.0359 l 1.7e-4,-0.0284 c 6.4e-4,-0.27714 -0.22147,-0.50192 -0.49858,-0.50415 l -10.56164,-0.0837 v -8.081937 l 12.24868,0.07842 c 0.0318,0.0072 0.0646,0.01223 0.0987,0.01223 h 1.36688 c 0.23956,0 0.43246,-0.192904 0.43246,-0.432464 v -0.140637 c 10e-4,-0.01499 0.002,-0.02998 0.002,-0.0452 l 0.004,-0.994978 c 1.3e-4,-0.02974 -0.002,-0.05887 -0.007,-0.08741 v -7.662073 a 5.4386,5.4386 0 0 0 4.67344,-5.37788 5.4386,5.4386 0 0 0 -5.43864,-5.438468 5.4386,5.4386 0 0 0 -5.43864,5.438468 5.4386,5.4386 0 0 0 3.97192,5.236416 v 7.258278 l -11.91489,-0.07638 v -2.460538 c 0,-1.415763 -1.13978,-2.555527 -2.55554,-2.555527 h -1.33437 v -9.127213 a 5.4386,5.4386 0 0 0 4.32304,-5.321153 5.4386,5.4386 0 0 0 -5.43863,-5.438471 z m 0,2.501653 a 2.936879,2.936879 0 0 1 2.93699,2.936818 2.936879,2.936879 0 0 1 -2.93699,2.936971 2.936879,2.936879 0 0 1 -2.93696,-2.936971 2.936879,2.936879 0 0 1 2.93696,-2.936818 z m -25.0035,2.062154 a 2.936879,2.936879 0 0 1 2.93698,2.936803 2.936879,2.936879 0 0 1 -2.93698,2.936983 2.936879,2.936879 0 0 1 -2.93697,-2.936983 2.936879,2.936879 0 0 1 2.93697,-2.936803 z m 43.39096,4.98351 a 2.936879,2.936879 0 0 1 2.93698,2.936815 2.936879,2.936879 0 0 1 -2.93698,2.936971 2.936879,2.936879 0 0 1 -2.93699,-2.936971 2.936879,2.936879 0 0 1 2.93699,-2.936815 z m -50.32836,4.22314 a 2.936879,2.936879 0 0 1 2.93697,2.936803 2.936879,2.936879 0 0 1 -2.93697,2.936971 2.936879,2.936879 0 0 1 -2.937,-2.936971 2.936879,2.936879 0 0 1 2.937,-2.936803 z m 20.25323,8.95257 h 11.90634 c 1.14858,0 2.0732,0.924641 2.0732,2.073218 v 11.661149 c 0,1.14856 -0.92462,2.07321 -2.0732,2.07321 h -11.90634 c -1.14857,0 -2.07322,-0.92465 -2.07322,-2.07321 V 95.961771 c 0,-1.148577 0.92465,-2.073218 2.07322,-2.073218 z m -20.52308,14.142327 a 2.936879,2.936879 0 0 1 2.93697,2.93682 2.936879,2.936879 0 0 1 -2.93697,2.93697 2.936879,2.936879 0 0 1 -2.93699,-2.93697 2.936879,2.936879 0 0 1 2.93699,-2.93682 z m 6.60579,10.91755 a 2.936879,2.936879 0 0 1 2.93698,2.93681 2.936879,2.936879 0 0 1 -2.93698,2.93698 2.936879,2.936879 0 0 1 -2.93697,-2.93698 2.936879,2.936879 0 0 1 2.93697,-2.93681 z m 40.53654,1.58319 a 2.936879,2.936879 0 0 1 2.93699,2.93682 2.936879,2.936879 0 0 1 -2.93699,2.93697 2.936879,2.936879 0 0 1 -2.93697,-2.93697 2.936879,2.936879 0 0 1 2.93697,-2.93682 z m -16.04757,4.33289 a 2.936879,2.936879 0 0 1 2.93698,2.9368 2.936879,2.936879 0 0 1 -2.93698,2.93699 2.936879,2.936879 0 0 1 -2.93696,-2.93699 2.936879,2.936879 0 0 1 2.93696,-2.9368 z"
       id="rect815-3-3-7"
       inkscape:connector-curvature="0" />
    <path
       style="opacity:1;fill:#cc0001;fill-opacity:0.8492462;stroke:none;stroke-width:1.01059234;stroke-linecap:round;stroke-linejoin:round;stroke-miterlimit:14.39999962;stroke-dasharray:none;stroke-opacity:1;paint-order:fill markers stroke"
       d="m 289.05881,150.16255 a 3.1981438,3.1981438 0 0 0 -3.19816,3.19807 3.1981438,3.1981438 0 0 0 2.54201,3.12642 v 5.36961 h -5.21607 v -7.33688 c 0,-0.009 -7e-4,-0.0181 -0.001,-0.027 l 2.8e-4,-0.0536 c 4.1e-4,-0.1573 -0.12582,-0.28499 -0.28312,-0.28627 l -5.38652,-0.0442 a 3.1981438,3.1981438 0 0 0 -3.16019,-2.73347 3.1981438,3.1981438 0 0 0 -3.19816,3.19806 3.1981438,3.1981438 0 0 0 3.19816,3.19817 3.1981438,3.1981438 0 0 0 3.08349,-2.35105 l 4.43508,0.0364 v 6.39988 h -1.00056 c -0.83254,0 -1.50277,0.67024 -1.50277,1.50277 v 2.80875 l -8.47836,-0.0455 v -2.99822 a 3.1981438,3.1981438 0 0 0 2.58178,-3.13728 3.1981438,3.1981438 0 0 0 -3.19817,-3.19807 3.1981438,3.1981438 0 0 0 -3.19816,3.19807 3.1981438,3.1981438 0 0 0 2.50224,3.11744 v 4.12234 c 0,0.11144 0.0897,0.20112 0.20113,0.20112 h 0.19115 c 0.0141,0.001 0.0283,0.003 0.0429,0.003 l 9.35559,0.0501 v 5.50501 c 0,0.0585 0.004,0.11608 0.0101,0.1728 l -6.10027,-0.0352 a 3.1981438,3.1981438 0 0 0 -3.16322,-2.75309 3.1981438,3.1981438 0 0 0 -3.19817,3.19806 3.1981438,3.1981438 0 0 0 3.19817,3.19817 3.1981438,3.1981438 0 0 0 3.07787,-2.33113 l 7.50672,0.0432 c 0.0563,0.006 0.11352,0.01 0.17162,0.01 h 0.95062 v 5.01109 l -4.67162,-0.0386 a 3.1981438,3.1981438 0 0 0 -3.1507,-2.6708 3.1981438,3.1981438 0 0 0 -3.19816,3.19807 3.1981438,3.1981438 0 0 0 3.19816,3.19816 3.1981438,3.1981438 0 0 0 3.09751,-2.41352 l 4.94764,0.0408 c 0.0229,0.006 0.0466,0.009 0.0712,0.009 h 0.72415 c 0.021,0 0.0415,-0.003 0.0612,-0.006 0.1326,-0.0221 0.23325,-0.13606 0.23369,-0.27543 l 0.002,-0.74852 c 4e-5,-0.0136 -10e-4,-0.027 -0.003,-0.04 v -5.26383 h 4.64823 v 5.84172 a 3.1981438,3.1981438 0 0 0 -2.5805,3.13699 3.1981438,3.1981438 0 0 0 3.19818,3.19816 3.1981438,3.1981438 0 0 0 3.19816,-3.19816 3.1981438,3.1981438 0 0 0 -2.50343,-3.11765 v -5.86106 h 1.40241 c 0.83253,0 1.50277,-0.67023 1.50277,-1.50277 v -0.80181 l 5.19257,0.0412 v 5.56215 a 3.1981438,3.1981438 0 0 0 -2.55395,3.13205 3.1981438,3.1981438 0 0 0 3.19817,3.19816 3.1981438,3.1981438 0 0 0 3.19816,-3.19816 3.1981438,3.1981438 0 0 0 -2.52997,-3.12357 v -6.5407 c 0,-0.007 -7.1e-4,-0.0141 -0.001,-0.0211 l 9e-5,-0.0167 c 3.8e-4,-0.16297 -0.13023,-0.29515 -0.29318,-0.29646 l -6.21073,-0.0492 v -4.75255 l 7.20278,0.0461 c 0.0187,0.004 0.038,0.007 0.058,0.007 h 0.80379 c 0.14087,0 0.25431,-0.11344 0.25431,-0.25431 v -0.0827 c 7e-4,-0.009 10e-4,-0.0176 10e-4,-0.0266 l 0.002,-0.58509 c 8e-5,-0.0175 -10e-4,-0.0346 -0.004,-0.0514 v -4.50565 a 3.1981438,3.1981438 0 0 0 2.74819,-3.16243 3.1981438,3.1981438 0 0 0 -3.19816,-3.19807 3.1981438,3.1981438 0 0 0 -3.19817,3.19807 3.1981438,3.1981438 0 0 0 2.33567,3.07925 v 4.26819 l -7.0065,-0.0449 v -1.44691 c 0,-0.83253 -0.67024,-1.50277 -1.50277,-1.50277 h -0.78467 v -5.36721 a 3.1981438,3.1981438 0 0 0 2.54214,-3.12908 3.1981438,3.1981438 0 0 0 -3.19816,-3.19807 z m 0,1.47109 a 1.7270182,1.7270182 0 0 1 1.72709,1.72698 1.7270182,1.7270182 0 0 1 -1.72709,1.72707 1.7270182,1.7270182 0 0 1 -1.72706,-1.72707 1.7270182,1.7270182 0 0 1 1.72706,-1.72698 z m -14.70319,1.21263 a 1.7270182,1.7270182 0 0 1 1.72708,1.72698 1.7270182,1.7270182 0 0 1 -1.72708,1.72708 1.7270182,1.7270182 0 0 1 -1.72707,-1.72708 1.7270182,1.7270182 0 0 1 1.72707,-1.72698 z m 25.51586,2.93053 a 1.7270182,1.7270182 0 0 1 1.72708,1.72699 1.7270182,1.7270182 0 0 1 -1.72708,1.72707 1.7270182,1.7270182 0 0 1 -1.72708,-1.72707 1.7270182,1.7270182 0 0 1 1.72708,-1.72699 z m -29.59536,2.4834 a 1.7270182,1.7270182 0 0 1 1.72707,1.72698 1.7270182,1.7270182 0 0 1 -1.72707,1.72707 1.7270182,1.7270182 0 0 1 -1.72709,-1.72707 1.7270182,1.7270182 0 0 1 1.72709,-1.72698 z m 11.90982,5.26452 h 7.00146 c 0.67542,0 1.21914,0.54373 1.21914,1.21915 v 6.85728 c 0,0.67541 -0.54372,1.21915 -1.21914,1.21915 h -7.00146 c -0.67541,0 -1.21915,-0.54374 -1.21915,-1.21915 v -6.85728 c 0,-0.67542 0.54374,-1.21915 1.21915,-1.21915 z m -12.06851,8.31633 a 1.7270182,1.7270182 0 0 1 1.72708,1.72698 1.7270182,1.7270182 0 0 1 -1.72708,1.72708 1.7270182,1.7270182 0 0 1 -1.72708,-1.72708 1.7270182,1.7270182 0 0 1 1.72708,-1.72698 z m 3.88451,6.42002 a 1.7270182,1.7270182 0 0 1 1.72708,1.72697 1.7270182,1.7270182 0 0 1 -1.72708,1.72708 1.7270182,1.7270182 0 0 1 -1.72708,-1.72708 1.7270182,1.7270182 0 0 1 1.72708,-1.72697 z m 23.83733,0.93098 a 1.7270182,1.7270182 0 0 1 1.72707,1.72698 1.7270182,1.7270182 0 0 1 -1.72707,1.72708 1.7270182,1.7270182 0 0 1 -1.72708,-1.72708 1.7270182,1.7270182 0 0 1 1.72708,-1.72698 z m -9.43671,2.54794 a 1.7270182,1.7270182 0 0 1 1.72708,1.72697 1.7270182,1.7270182 0 0 1 -1.72708,1.72708 1.7270182,1.7270182 0 0 1 -1.72706,-1.72708 1.7270182,1.7270182 0 0 1 1.72706,-1.72697 z"
       id="rect815-3-3-2"
       inkscape:connector-curvature="0" />
    <path
       style="opacity:1;fill:#cc0001;fill-opacity:0.8492462;stroke:none;stroke-width:1.66572821;stroke-linecap:round;stroke-linejoin:round;stroke-miterlimit:14.39999962;stroke-dasharray:none;stroke-opacity:1;paint-order:fill markers stroke"
       d="m 307.56889,232.56136 a 5.2714019,5.2714019 0 0 0 -5.27144,5.27127 5.2714019,5.2714019 0 0 0 4.18993,5.15319 v 8.85057 h -8.59749 v -12.09317 c 0,-0.0151 -10e-4,-0.0297 -0.002,-0.0445 l 4.7e-4,-0.0883 c 6.7e-4,-0.25929 -0.20739,-0.46975 -0.46667,-0.47187 l -8.87844,-0.0729 a 5.2714019,5.2714019 0 0 0 -5.20884,-4.50548 5.2714019,5.2714019 0 0 0 -5.27143,5.27127 5.2714019,5.2714019 0 0 0 5.27143,5.27143 5.2714019,5.2714019 0 0 0 5.08243,-3.87516 l 7.3102,0.06 v 10.54873 h -1.64919 c -1.37225,0 -2.47697,1.10472 -2.47697,2.47696 v 4.62958 l -13.97463,-0.075 v -4.94188 a 5.2714019,5.2714019 0 0 0 4.25548,-5.17107 5.2714019,5.2714019 0 0 0 -5.27144,-5.27129 5.2714019,5.2714019 0 0 0 -5.27144,5.27129 5.2714019,5.2714019 0 0 0 4.12438,5.13836 v 6.79474 c 0,0.18367 0.14782,0.33149 0.33149,0.33149 h 0.31508 c 0.0232,0.002 0.0467,0.005 0.0707,0.005 l 15.42053,0.0825 v 9.07373 c 0,0.0965 0.006,0.19133 0.0166,0.28483 l -10.05491,-0.0581 a 5.2714019,5.2714019 0 0 0 -5.21382,-4.53784 5.2714019,5.2714019 0 0 0 -5.27144,5.27127 5.2714019,5.2714019 0 0 0 5.27144,5.27145 5.2714019,5.2714019 0 0 0 5.07315,-3.84233 l 12.37311,0.0713 c 0.0929,0.0105 0.1871,0.0165 0.28287,0.0165 h 1.56688 v 8.25963 l -7.70008,-0.0636 a 5.2714019,5.2714019 0 0 0 -5.1932,-4.40219 5.2714019,5.2714019 0 0 0 -5.27144,5.27127 5.2714019,5.2714019 0 0 0 5.27144,5.27144 5.2714019,5.2714019 0 0 0 5.10552,-3.97814 l 8.15505,0.0673 c 0.0377,0.009 0.0768,0.0148 0.11744,0.0148 h 1.19359 c 0.0346,0 0.0683,-0.005 0.10088,-0.0105 0.21856,-0.0364 0.38445,-0.22427 0.38517,-0.45399 l 0.003,-1.23377 c 7e-5,-0.0224 -0.002,-0.0445 -0.005,-0.066 v -8.67621 h 7.66154 v 9.62873 a 5.2714019,5.2714019 0 0 0 -4.25336,5.1706 5.2714019,5.2714019 0 0 0 5.27144,5.27142 5.2714019,5.2714019 0 0 0 5.27144,-5.27142 5.2714019,5.2714019 0 0 0 -4.12633,-5.13872 v -9.66061 h 2.31155 c 1.37223,0 2.47696,-1.10472 2.47696,-2.47697 v -1.3216 l 8.55876,0.0679 v 9.16793 a 5.2714019,5.2714019 0 0 0 -4.20959,5.16246 5.2714019,5.2714019 0 0 0 5.27143,5.27143 5.2714019,5.2714019 0 0 0 5.27144,-5.27143 5.2714019,5.2714019 0 0 0 -4.17008,-5.14848 v -10.78083 c 0,-0.0117 -10e-4,-0.0232 -0.002,-0.0347 l 1.6e-4,-0.0275 c 6.2e-4,-0.26862 -0.21465,-0.48649 -0.48325,-0.48865 l -10.23695,-0.0811 v -7.83348 l 11.87213,0.076 c 0.0308,0.007 0.0626,0.0119 0.0956,0.0119 h 1.32486 c 0.2322,0 0.41917,-0.18698 0.41917,-0.41917 v -0.13632 c 10e-4,-0.0145 0.002,-0.029 0.002,-0.0438 l 0.003,-0.96439 c 1.3e-4,-0.0288 -0.002,-0.0571 -0.007,-0.0847 v -7.42652 a 5.2714019,5.2714019 0 0 0 4.52976,-5.21255 5.2714019,5.2714019 0 0 0 -5.27144,-5.27128 5.2714019,5.2714019 0 0 0 -5.27144,5.27128 5.2714019,5.2714019 0 0 0 3.84981,5.07543 v 7.03514 l -11.54857,-0.074 v -2.3849 c 0,-1.37223 -1.10474,-2.47696 -2.47698,-2.47696 h -1.29337 v -8.8466 a 5.2714019,5.2714019 0 0 0 4.19015,-5.15757 5.2714019,5.2714019 0 0 0 -5.27144,-5.27127 z m 0,2.42475 a 2.846591,2.846591 0 0 1 2.84669,2.84652 2.846591,2.846591 0 0 1 -2.84669,2.84668 2.846591,2.846591 0 0 1 -2.84668,-2.84668 2.846591,2.846591 0 0 1 2.84668,-2.84652 z m -24.23482,1.99875 a 2.846591,2.846591 0 0 1 2.84669,2.84652 2.846591,2.846591 0 0 1 -2.84669,2.84669 2.846591,2.846591 0 0 1 -2.84668,-2.84669 2.846591,2.846591 0 0 1 2.84668,-2.84652 z m 42.05699,4.8303 a 2.846591,2.846591 0 0 1 2.84669,2.84653 2.846591,2.846591 0 0 1 -2.84669,2.84668 2.846591,2.846591 0 0 1 -2.84668,-2.84668 2.846591,2.846591 0 0 1 2.84668,-2.84653 z m -48.78112,4.09331 a 2.846591,2.846591 0 0 1 2.84669,2.84652 2.846591,2.846591 0 0 1 -2.84669,2.84668 2.846591,2.846591 0 0 1 -2.8467,-2.84668 2.846591,2.846591 0 0 1 2.8467,-2.84652 z m 19.6306,8.67734 h 11.54029 c 1.11327,0 2.00948,0.89622 2.00948,2.00949 v 11.30264 c 0,1.11326 -0.89621,2.00948 -2.00948,2.00948 h -11.54029 c -1.11326,0 -2.00949,-0.89622 -2.00949,-2.00948 V 256.5953 c 0,-1.11327 0.89623,-2.00949 2.00949,-2.00949 z m -19.89216,13.70756 a 2.846591,2.846591 0 0 1 2.84668,2.84653 2.846591,2.846591 0 0 1 -2.84668,2.84668 2.846591,2.846591 0 0 1 -2.84669,-2.84668 2.846591,2.846591 0 0 1 2.84669,-2.84653 z m 6.40272,10.58191 a 2.846591,2.846591 0 0 1 2.84669,2.84652 2.846591,2.846591 0 0 1 -2.84669,2.84669 2.846591,2.846591 0 0 1 -2.84668,-2.84669 2.846591,2.846591 0 0 1 2.84668,-2.84652 z m 39.29034,1.53452 a 2.846591,2.846591 0 0 1 2.84669,2.84653 2.846591,2.846591 0 0 1 -2.84669,2.84668 2.846591,2.846591 0 0 1 -2.84669,-2.84668 2.846591,2.846591 0 0 1 2.84669,-2.84653 z m -15.55423,4.19968 a 2.846591,2.846591 0 0 1 2.84668,2.84652 2.846591,2.846591 0 0 1 -2.84668,2.84669 2.846591,2.846591 0 0 1 -2.84668,-2.84669 2.846591,2.846591 0 0 1 2.84668,-2.84652 z"
       id="rect815-3-3-1-7"
       inkscape:connector-curvature="0" />
  </g>
</svg>
