<?xml version="1.0" standalone="no"?>
<!DOCTYPE svg PUBLIC "-//W3C//DTD SVG 20010904//EN"
 "http://www.w3.org/TR/2001/REC-SVG-20010904/DTD/svg10.dtd">
<svg version="1.0" xmlns="http://www.w3.org/2000/svg"
 width="263.000000pt" height="263.000000pt" viewBox="0 0 263.000000 263.000000"
 preserveAspectRatio="xMidYMid meet">
<metadata>
Created by potrace 1.11, written by Peter Selinger 2001-2013
</metadata>
<g transform="translate(0.000000,263.000000) scale(0.100000,-0.100000)"
fill="#000000" stroke="none">
<path d="M1470 2598 c-105 -63 -140 -193 -84 -306 26 -52 81 -100 132 -116 22
-7 22 -9 22 -197 l0 -189 -180 0 -180 0 0 268 c0 195 -3 271 -12 280 -9 9 -68
12 -205 12 -176 0 -194 2 -199 18 -15 50 -53 108 -87 133 -147 106 -353 18
-374 -160 -12 -100 44 -202 131 -242 57 -26 148 -25 202 2 49 23 101 78 116
121 9 26 13 28 66 28 32 0 101 -3 155 -7 l97 -6 0 -224 0 -223 -55 0 c-46 0
-60 -4 -87 -29 l-33 -29 -3 -126 -4 -126 -299 0 -299 0 0 103 0 103 50 23
c145 66 181 256 71 374 -91 99 -261 96 -346 -5 -44 -52 -57 -94 -53 -169 5
-93 43 -153 121 -193 l57 -29 0 -154 0 -153 350 0 350 0 0 -200 0 -200 -213 0
-212 0 -18 49 c-29 83 -125 151 -211 151 -54 0 -116 -23 -157 -58 -56 -48 -79
-101 -79 -182 0 -57 5 -73 33 -120 94 -157 323 -145 407 20 l22 43 186 -6
c103 -4 240 -7 305 -7 l117 0 0 -175 0 -175 -163 0 -164 0 -12 40 c-7 23 -31
60 -54 84 -72 75 -184 93 -277 46 -171 -88 -161 -352 17 -427 42 -17 144 -17
186 0 49 21 93 63 117 112 l22 45 214 0 214 0 0 225 0 225 165 0 165 0 0 -202
0 -203 -45 -19 c-81 -33 -145 -128 -145 -216 0 -85 59 -177 134 -211 56 -25
155 -25 204 0 91 46 137 129 130 230 -6 85 -45 145 -120 185 l-58 31 0 203 0
202 55 0 c104 0 155 42 155 130 l0 40 180 0 180 0 0 -197 -1 -198 -50 -23
c-219 -103 -138 -442 106 -442 174 0 285 178 211 337 -25 53 -86 108 -133 119
l-23 6 -2 247 -3 246 -232 3 -233 2 0 168 0 168 298 -1 297 0 3 196 2 196 41
12 c61 18 124 87 144 156 65 224 -196 395 -377 245 -117 -97 -102 -299 30
-375 l51 -30 1 -147 0 -148 -244 0 -244 0 -4 76 c-3 71 -6 78 -36 105 -25 23
-42 29 -77 29 l-45 0 0 188 0 189 41 18 c119 54 171 205 110 323 -42 82 -113
122 -214 122 -53 0 -71 -5 -117 -32z m208 -123 c44 -48 45 -100 1 -149 -73
-84 -202 -37 -202 73 0 109 126 158 201 76z m-1089 -59 c89 -47 78 -176 -18
-216 -63 -26 -151 36 -151 106 0 94 88 151 169 110z m1863 -234 c58 -57 42
-149 -33 -187 -91 -47 -196 52 -156 148 33 79 130 99 189 39z m-2151 -159 c32
-19 59 -68 59 -106 0 -40 -41 -90 -86 -106 -38 -13 -44 -13 -79 5 -48 25 -80
81 -70 123 18 84 105 126 176 84z m1356 -387 l28 -24 3 -254 c2 -166 0 -266
-8 -290 -19 -65 -33 -68 -330 -68 -265 0 -289 3 -317 39 -9 12 -12 91 -13 294
l0 278 25 24 24 25 280 0 280 0 28 -24z m-1353 -606 c40 -36 52 -76 36 -125
-34 -102 -186 -102 -220 0 -16 49 -4 89 36 125 26 22 44 30 74 30 30 0 48 -8
74 -30z m263 -450 c89 -54 74 -181 -26 -211 -49 -15 -103 7 -131 53 -26 43
-25 77 3 119 40 60 97 74 154 39z m1739 -84 c29 -29 34 -41 34 -80 0 -111
-133 -160 -204 -75 -40 47 -37 110 8 155 29 29 41 34 81 34 40 0 52 -5 81 -34z
m-707 -160 c84 -44 81 -170 -5 -211 -50 -23 -95 -13 -133 31 -84 95 25 238
138 180z"/>
</g>
</svg>
